# xmcd CD database file
#
# Track frame offsets:
#	150
#	27358
#	47910
#	81264
#	111824
#	139823
#	166739
#	195165
#	233035
#	258672
#
# Disc length: 3717 seconds
#
# Revision: 0
# Processed by: cddbd v1.5.2PL0 Copyright (c) Steve Scherf et al.
# Submitted via: CDex 1.51
#
DISCID=7e0e830a
DTITLE=Jimmy Thackery and The Drivers - Inside Tracks
DYEAR=2008
DGENRE=Blues
TTITLE0=All Because Of You
TTITLE1=Promised Land
TTITLE2=That Dog Won't Hunt
TTITLE3=Change The Rules
TTITLE4=Landlocked
TTITLE5=Just A Feeling
TTITLE6=Eat It All
TTITLE7=Blinking Of An Eye
TTITLE8=What Part Of 'No'
TTITLE9=(You Got Me) Now What You Gonna Do
EXTD=YEAR: 2008
EXTT0=
EXTT1=
EXTT2=
EXTT3=
EXTT4=
EXTT5=
EXTT6=
EXTT7=
EXTT8=
EXTT9=
PLAYORDER=
